<mxfile host="65bd71144e">
    <diagram id="jHKX-aJZ81fpsxbjzrVW" name="MMU-translation-tables">
        <mxGraphModel dx="268" dy="182" grid="1" gridSize="10" guides="1" tooltips="1" connect="1" arrows="1" fold="1" page="1" pageScale="1" pageWidth="850" pageHeight="1100" background="#FFFFFF" math="0" shadow="0">
            <root>
                <mxCell id="0"/>
                <mxCell id="1" parent="0"/>
                <mxCell id="5" style="edgeStyle=none;html=1;exitX=1;exitY=0.25;exitDx=0;exitDy=0;entryX=-0.008;entryY=0.09;entryDx=0;entryDy=0;entryPerimeter=0;" parent="1" source="4" edge="1">
                    <mxGeometry relative="1" as="geometry">
                        <mxPoint x="239.03999999999996" y="153.5" as="targetPoint"/>
                    </mxGeometry>
                </mxCell>
                <mxCell id="2" value="level1 table" style="rounded=0;whiteSpace=wrap;html=1;verticalAlign=top;" parent="1" vertex="1">
                    <mxGeometry x="50" y="140" width="120" height="420" as="geometry"/>
                </mxCell>
                <mxCell id="4" value="level1 entry&amp;nbsp;" style="rounded=0;whiteSpace=wrap;html=1;" parent="1" vertex="1">
                    <mxGeometry x="50" y="190" width="120" height="20" as="geometry"/>
                </mxCell>
                <mxCell id="13" style="edgeStyle=none;html=1;exitX=1;exitY=0.5;exitDx=0;exitDy=0;entryX=-0.008;entryY=0.057;entryDx=0;entryDy=0;entryPerimeter=0;" parent="1" source="23" target="26" edge="1">
                    <mxGeometry relative="1" as="geometry">
                        <mxPoint x="360" y="190" as="sourcePoint"/>
                        <mxPoint x="410" y="143.45" as="targetPoint"/>
                    </mxGeometry>
                </mxCell>
                <mxCell id="46" style="edgeStyle=none;html=1;exitX=1;exitY=0.5;exitDx=0;exitDy=0;entryX=0;entryY=0;entryDx=0;entryDy=0;" parent="1" source="16" target="34" edge="1">
                    <mxGeometry relative="1" as="geometry"/>
                </mxCell>
                <mxCell id="16" value="level1 entry" style="rounded=0;whiteSpace=wrap;html=1;" parent="1" vertex="1">
                    <mxGeometry x="50" y="230" width="120" height="20" as="geometry"/>
                </mxCell>
                <mxCell id="18" value=".." style="text;html=1;align=center;verticalAlign=middle;whiteSpace=wrap;rounded=0;" parent="1" vertex="1">
                    <mxGeometry x="80" y="210" width="60" height="20" as="geometry"/>
                </mxCell>
                <mxCell id="21" value="&lt;b&gt;Physical Memory&lt;/b&gt;&lt;div&gt;&lt;b&gt;Address Space&amp;nbsp;&lt;/b&gt;&lt;/div&gt;" style="rounded=0;whiteSpace=wrap;html=1;verticalAlign=top;" parent="1" vertex="1">
                    <mxGeometry x="600" y="120" width="120" height="460" as="geometry"/>
                </mxCell>
                <mxCell id="22" value="level2 table" style="rounded=0;whiteSpace=wrap;html=1;verticalAlign=top;" parent="1" vertex="1">
                    <mxGeometry x="240" y="140" width="120" height="140" as="geometry"/>
                </mxCell>
                <mxCell id="23" value="level2 entry&amp;nbsp;" style="rounded=0;whiteSpace=wrap;html=1;" parent="1" vertex="1">
                    <mxGeometry x="240" y="190" width="120" height="20" as="geometry"/>
                </mxCell>
                <mxCell id="24" value="level2 entry" style="rounded=0;whiteSpace=wrap;html=1;" parent="1" vertex="1">
                    <mxGeometry x="240" y="230" width="120" height="20" as="geometry"/>
                </mxCell>
                <mxCell id="25" value=".." style="text;html=1;align=center;verticalAlign=middle;whiteSpace=wrap;rounded=0;" parent="1" vertex="1">
                    <mxGeometry x="270" y="210" width="60" height="20" as="geometry"/>
                </mxCell>
                <mxCell id="26" value="level3 table" style="rounded=0;whiteSpace=wrap;html=1;verticalAlign=top;" parent="1" vertex="1">
                    <mxGeometry x="425" y="130" width="120" height="130" as="geometry"/>
                </mxCell>
                <mxCell id="27" value="level3 entry&amp;nbsp;" style="rounded=0;whiteSpace=wrap;html=1;" parent="1" vertex="1">
                    <mxGeometry x="425" y="180" width="120" height="20" as="geometry"/>
                </mxCell>
                <mxCell id="55" style="edgeStyle=none;html=1;exitX=1;exitY=0.5;exitDx=0;exitDy=0;entryX=0.008;entryY=0.336;entryDx=0;entryDy=0;entryPerimeter=0;" parent="1" source="28" target="21" edge="1">
                    <mxGeometry relative="1" as="geometry"/>
                </mxCell>
                <mxCell id="28" value="level3 entry" style="rounded=0;whiteSpace=wrap;html=1;" parent="1" vertex="1">
                    <mxGeometry x="425" y="220" width="120" height="20" as="geometry"/>
                </mxCell>
                <mxCell id="29" value=".." style="text;html=1;align=center;verticalAlign=middle;whiteSpace=wrap;rounded=0;" parent="1" vertex="1">
                    <mxGeometry x="455" y="200" width="60" height="20" as="geometry"/>
                </mxCell>
                <mxCell id="34" value="level2 table" style="rounded=0;whiteSpace=wrap;html=1;verticalAlign=top;" parent="1" vertex="1">
                    <mxGeometry x="240" y="340" width="120" height="140" as="geometry"/>
                </mxCell>
                <mxCell id="35" value="level2 entry&amp;nbsp;" style="rounded=0;whiteSpace=wrap;html=1;" parent="1" vertex="1">
                    <mxGeometry x="240" y="390" width="120" height="20" as="geometry"/>
                </mxCell>
                <mxCell id="59" value="" style="edgeStyle=none;html=1;" parent="1" source="36" edge="1">
                    <mxGeometry relative="1" as="geometry">
                        <mxPoint x="600" y="460" as="targetPoint"/>
                    </mxGeometry>
                </mxCell>
                <mxCell id="36" value="level2 entry" style="rounded=0;whiteSpace=wrap;html=1;" parent="1" vertex="1">
                    <mxGeometry x="240" y="450" width="120" height="20" as="geometry"/>
                </mxCell>
                <mxCell id="37" value=".." style="text;html=1;align=center;verticalAlign=middle;whiteSpace=wrap;rounded=0;" parent="1" vertex="1">
                    <mxGeometry x="270" y="410" width="60" height="20" as="geometry"/>
                </mxCell>
                <mxCell id="38" value=".." style="text;html=1;align=center;verticalAlign=middle;whiteSpace=wrap;rounded=0;fontStyle=1" parent="1" vertex="1">
                    <mxGeometry x="270" y="280" width="60" height="20" as="geometry"/>
                </mxCell>
                <mxCell id="41" style="edgeStyle=none;html=1;exitX=1;exitY=0.5;exitDx=0;exitDy=0;entryX=0;entryY=0;entryDx=0;entryDy=0;" parent="1" source="27" target="43" edge="1">
                    <mxGeometry relative="1" as="geometry"/>
                </mxCell>
                <mxCell id="43" value="4KiB physical page" style="rounded=0;whiteSpace=wrap;html=1;verticalAlign=middle;" parent="1" vertex="1">
                    <mxGeometry x="600" y="185" width="120" height="50" as="geometry"/>
                </mxCell>
                <mxCell id="45" value="level1 entry&amp;nbsp;" style="rounded=0;whiteSpace=wrap;html=1;" parent="1" vertex="1">
                    <mxGeometry x="50" y="510" width="120" height="20" as="geometry"/>
                </mxCell>
                <mxCell id="47" style="edgeStyle=none;html=1;exitX=1;exitY=0.5;exitDx=0;exitDy=0;entryX=0.017;entryY=0.528;entryDx=0;entryDy=0;entryPerimeter=0;" parent="1" source="45" edge="1">
                    <mxGeometry relative="1" as="geometry">
                        <mxPoint x="602.04" y="520.08" as="targetPoint"/>
                    </mxGeometry>
                </mxCell>
                <mxCell id="48" value="level3 table" style="rounded=0;whiteSpace=wrap;html=1;verticalAlign=top;" parent="1" vertex="1">
                    <mxGeometry x="425" y="300" width="120" height="130" as="geometry"/>
                </mxCell>
                <mxCell id="49" value="level3 entry&amp;nbsp;" style="rounded=0;whiteSpace=wrap;html=1;" parent="1" vertex="1">
                    <mxGeometry x="425" y="350" width="120" height="20" as="geometry"/>
                </mxCell>
                <mxCell id="50" value="level3 entry" style="rounded=0;whiteSpace=wrap;html=1;" parent="1" vertex="1">
                    <mxGeometry x="425" y="390" width="120" height="20" as="geometry"/>
                </mxCell>
                <mxCell id="51" value=".." style="text;html=1;align=center;verticalAlign=middle;whiteSpace=wrap;rounded=0;" parent="1" vertex="1">
                    <mxGeometry x="455" y="370" width="60" height="20" as="geometry"/>
                </mxCell>
                <mxCell id="52" style="edgeStyle=none;html=1;exitX=1;exitY=0.5;exitDx=0;exitDy=0;entryX=-0.008;entryY=0.083;entryDx=0;entryDy=0;entryPerimeter=0;" parent="1" source="24" target="48" edge="1">
                    <mxGeometry relative="1" as="geometry"/>
                </mxCell>
                <mxCell id="53" value=".." style="text;html=1;align=center;verticalAlign=middle;whiteSpace=wrap;rounded=0;fontStyle=1" parent="1" vertex="1">
                    <mxGeometry x="455" y="270" width="60" height="20" as="geometry"/>
                </mxCell>
                <mxCell id="54" value="1GiB physical block" style="rounded=0;whiteSpace=wrap;html=1;verticalAlign=middle;" parent="1" vertex="1">
                    <mxGeometry x="600" y="510" width="120" height="50" as="geometry"/>
                </mxCell>
                <mxCell id="56" value="4KiB physical page" style="rounded=0;whiteSpace=wrap;html=1;verticalAlign=middle;" parent="1" vertex="1">
                    <mxGeometry x="600" y="270" width="120" height="50" as="geometry"/>
                </mxCell>
                <mxCell id="57" value="2MiB physical block" style="rounded=0;whiteSpace=wrap;html=1;verticalAlign=middle;" parent="1" vertex="1">
                    <mxGeometry x="600" y="450" width="120" height="50" as="geometry"/>
                </mxCell>
            </root>
        </mxGraphModel>
    </diagram>
    <diagram id="19NJHDYWH1DTI_2Ko0ok" name="VA-to-PA-mapping">
        <mxGraphModel dx="735" dy="354" grid="1" gridSize="10" guides="1" tooltips="1" connect="1" arrows="1" fold="1" page="1" pageScale="1" pageWidth="850" pageHeight="1100" math="0" shadow="0">
            <root>
                <mxCell id="0"/>
                <mxCell id="1" parent="0"/>
                <mxCell id="Z0Yr65Eairota3UuIWzl-1" value="level1address" style="rounded=0;whiteSpace=wrap;html=1;" vertex="1" parent="1">
                    <mxGeometry x="120" y="160" width="150" height="40" as="geometry"/>
                </mxCell>
            </root>
        </mxGraphModel>
    </diagram>
    <diagram id="dsb8ZNLDPXDIVBwBIxdl" name="baremetal_memory_map1">
        <mxGraphModel dx="1022" dy="182" grid="1" gridSize="10" guides="1" tooltips="1" connect="1" arrows="1" fold="1" page="1" pageScale="1" pageWidth="850" pageHeight="1100" background="#FFFFFF" math="0" shadow="0">
            <root>
                <mxCell id="0"/>
                <mxCell id="1" parent="0"/>
                <mxCell id="9pEusxraPErxSle0Z_pp-1" value="DRAM" style="rounded=0;whiteSpace=wrap;html=1;verticalAlign=top;" vertex="1" parent="1">
                    <mxGeometry x="280" y="130" width="160" height="510" as="geometry"/>
                </mxCell>
                <mxCell id="9pEusxraPErxSle0Z_pp-6" style="edgeStyle=none;html=1;" edge="1" parent="1">
                    <mxGeometry relative="1" as="geometry">
                        <mxPoint x="440" y="190" as="targetPoint"/>
                        <mxPoint x="440" y="190" as="sourcePoint"/>
                        <Array as="points">
                            <mxPoint x="480" y="190"/>
                        </Array>
                    </mxGeometry>
                </mxCell>
                <mxCell id="9pEusxraPErxSle0Z_pp-2" value=".text" style="rounded=0;whiteSpace=wrap;html=1;fillColor=#f5f5f5;fontColor=#333333;strokeColor=#666666;" vertex="1" parent="1">
                    <mxGeometry x="280" y="190" width="160" height="80" as="geometry"/>
                </mxCell>
                <mxCell id="9pEusxraPErxSle0Z_pp-3" value="0x0000_0000_0000_0000" style="text;html=1;align=center;verticalAlign=middle;whiteSpace=wrap;rounded=0;" vertex="1" parent="1">
                    <mxGeometry x="120" y="120" width="160" height="30" as="geometry"/>
                </mxCell>
                <mxCell id="9pEusxraPErxSle0Z_pp-4" value="0x0000_0000_0008_0000" style="text;html=1;align=center;verticalAlign=middle;whiteSpace=wrap;rounded=0;" vertex="1" parent="1">
                    <mxGeometry x="120" y="180" width="160" height="30" as="geometry"/>
                </mxCell>
                <mxCell id="9pEusxraPErxSle0Z_pp-7" value="reset_handler" style="text;html=1;align=center;verticalAlign=middle;whiteSpace=wrap;rounded=0;" vertex="1" parent="1">
                    <mxGeometry x="490" y="170" width="60" height="30" as="geometry"/>
                </mxCell>
                <mxCell id="9pEusxraPErxSle0Z_pp-8" value=".ARM.exidx" style="rounded=0;whiteSpace=wrap;html=1;" vertex="1" parent="1">
                    <mxGeometry x="280" y="310" width="160" height="40" as="geometry"/>
                </mxCell>
                <mxCell id="9pEusxraPErxSle0Z_pp-9" value=".ARM.extab" style="rounded=0;whiteSpace=wrap;html=1;" vertex="1" parent="1">
                    <mxGeometry x="280" y="270" width="160" height="40" as="geometry"/>
                </mxCell>
                <mxCell id="9pEusxraPErxSle0Z_pp-15" value=".rodata" style="rounded=0;whiteSpace=wrap;html=1;fillColor=#f5f5f5;fontColor=#333333;strokeColor=#666666;" vertex="1" parent="1">
                    <mxGeometry x="280" y="350" width="160" height="50" as="geometry"/>
                </mxCell>
                <mxCell id="9pEusxraPErxSle0Z_pp-16" value=".data" style="rounded=0;whiteSpace=wrap;html=1;fillColor=#f5f5f5;fontColor=#333333;strokeColor=#666666;" vertex="1" parent="1">
                    <mxGeometry x="280" y="400" width="160" height="50" as="geometry"/>
                </mxCell>
                <mxCell id="9pEusxraPErxSle0Z_pp-17" value=".bss" style="rounded=0;whiteSpace=wrap;html=1;fillColor=#f5f5f5;fontColor=#333333;strokeColor=#666666;" vertex="1" parent="1">
                    <mxGeometry x="280" y="450" width="160" height="50" as="geometry"/>
                </mxCell>
                <mxCell id="9pEusxraPErxSle0Z_pp-18" value=".stack" style="rounded=0;whiteSpace=wrap;html=1;fillColor=#f5f5f5;fontColor=#333333;strokeColor=#666666;" vertex="1" parent="1">
                    <mxGeometry x="280" y="500" width="160" height="50" as="geometry"/>
                </mxCell>
                <mxCell id="9pEusxraPErxSle0Z_pp-21" value=".mmu_translation_tables" style="rounded=0;whiteSpace=wrap;html=1;fillColor=#f5f5f5;fontColor=#333333;strokeColor=#666666;" vertex="1" parent="1">
                    <mxGeometry x="280" y="570" width="160" height="50" as="geometry"/>
                </mxCell>
            </root>
        </mxGraphModel>
    </diagram>
    <diagram name="baremetal_memory_map2" id="UtLDbhTzqwrbYYJDZo6C">
        <mxGraphModel dx="737" dy="373" grid="1" gridSize="10" guides="1" tooltips="1" connect="1" arrows="1" fold="1" page="1" pageScale="1" pageWidth="850" pageHeight="1100" background="#FFFFFF" math="0" shadow="0">
            <root>
                <mxCell id="M3llXOsg-76fAK10a7wK-0"/>
                <mxCell id="M3llXOsg-76fAK10a7wK-1" parent="M3llXOsg-76fAK10a7wK-0"/>
                <mxCell id="M3llXOsg-76fAK10a7wK-2" value="DRAM" style="rounded=0;whiteSpace=wrap;html=1;verticalAlign=top;" parent="M3llXOsg-76fAK10a7wK-1" vertex="1">
                    <mxGeometry x="280" y="40" width="160" height="600" as="geometry"/>
                </mxCell>
                <mxCell id="M3llXOsg-76fAK10a7wK-3" style="edgeStyle=none;html=1;" parent="M3llXOsg-76fAK10a7wK-1" edge="1">
                    <mxGeometry relative="1" as="geometry">
                        <mxPoint x="440" y="80" as="targetPoint"/>
                        <mxPoint x="440" y="80" as="sourcePoint"/>
                        <Array as="points">
                            <mxPoint x="480" y="80"/>
                        </Array>
                    </mxGeometry>
                </mxCell>
                <mxCell id="M3llXOsg-76fAK10a7wK-4" value=".text" style="rounded=0;whiteSpace=wrap;html=1;fillColor=#f5f5f5;fontColor=#333333;strokeColor=#666666;" parent="M3llXOsg-76fAK10a7wK-1" vertex="1">
                    <mxGeometry x="280" y="190" width="160" height="80" as="geometry"/>
                </mxCell>
                <mxCell id="M3llXOsg-76fAK10a7wK-5" value="0x0000_0000_0000_0000" style="text;html=1;align=center;verticalAlign=middle;whiteSpace=wrap;rounded=0;" parent="M3llXOsg-76fAK10a7wK-1" vertex="1">
                    <mxGeometry x="120" y="30" width="160" height="30" as="geometry"/>
                </mxCell>
                <mxCell id="M3llXOsg-76fAK10a7wK-6" value="0x0000_0000_0010_0000" style="text;html=1;align=center;verticalAlign=middle;whiteSpace=wrap;rounded=0;" parent="M3llXOsg-76fAK10a7wK-1" vertex="1">
                    <mxGeometry x="120" y="180" width="160" height="30" as="geometry"/>
                </mxCell>
                <mxCell id="M3llXOsg-76fAK10a7wK-7" value="reset_handler of UART bootloader server" style="text;html=1;align=center;verticalAlign=middle;whiteSpace=wrap;rounded=0;" parent="M3llXOsg-76fAK10a7wK-1" vertex="1">
                    <mxGeometry x="480" y="60" width="230" height="30" as="geometry"/>
                </mxCell>
                <mxCell id="M3llXOsg-76fAK10a7wK-8" value=".ARM.exidx" style="rounded=0;whiteSpace=wrap;html=1;" parent="M3llXOsg-76fAK10a7wK-1" vertex="1">
                    <mxGeometry x="280" y="310" width="160" height="40" as="geometry"/>
                </mxCell>
                <mxCell id="M3llXOsg-76fAK10a7wK-9" value=".ARM.extab" style="rounded=0;whiteSpace=wrap;html=1;" parent="M3llXOsg-76fAK10a7wK-1" vertex="1">
                    <mxGeometry x="280" y="270" width="160" height="40" as="geometry"/>
                </mxCell>
                <mxCell id="M3llXOsg-76fAK10a7wK-10" value=".rodata" style="rounded=0;whiteSpace=wrap;html=1;fillColor=#f5f5f5;fontColor=#333333;strokeColor=#666666;" parent="M3llXOsg-76fAK10a7wK-1" vertex="1">
                    <mxGeometry x="280" y="350" width="160" height="50" as="geometry"/>
                </mxCell>
                <mxCell id="M3llXOsg-76fAK10a7wK-11" value=".data" style="rounded=0;whiteSpace=wrap;html=1;fillColor=#f5f5f5;fontColor=#333333;strokeColor=#666666;" parent="M3llXOsg-76fAK10a7wK-1" vertex="1">
                    <mxGeometry x="280" y="400" width="160" height="50" as="geometry"/>
                </mxCell>
                <mxCell id="M3llXOsg-76fAK10a7wK-12" value=".bss" style="rounded=0;whiteSpace=wrap;html=1;fillColor=#f5f5f5;fontColor=#333333;strokeColor=#666666;" parent="M3llXOsg-76fAK10a7wK-1" vertex="1">
                    <mxGeometry x="280" y="450" width="160" height="50" as="geometry"/>
                </mxCell>
                <mxCell id="M3llXOsg-76fAK10a7wK-13" value=".stack" style="rounded=0;whiteSpace=wrap;html=1;fillColor=#f5f5f5;fontColor=#333333;strokeColor=#666666;" parent="M3llXOsg-76fAK10a7wK-1" vertex="1">
                    <mxGeometry x="280" y="500" width="160" height="50" as="geometry"/>
                </mxCell>
                <mxCell id="M3llXOsg-76fAK10a7wK-14" value=".mmu_translation_tables" style="rounded=0;whiteSpace=wrap;html=1;fillColor=#f5f5f5;fontColor=#333333;strokeColor=#666666;" parent="M3llXOsg-76fAK10a7wK-1" vertex="1">
                    <mxGeometry x="280" y="570" width="160" height="50" as="geometry"/>
                </mxCell>
                <mxCell id="8U3hdrdu74jwYac5wuFE-2" value="UART bootloader&amp;nbsp;&lt;span style=&quot;background-color: transparent;&quot;&gt;server&lt;/span&gt;&lt;div&gt;&lt;span style=&quot;background-color: transparent;&quot;&gt;image&lt;/span&gt;&lt;div&gt;&lt;div&gt;&lt;div&gt;(&lt;span style=&quot;color: rgb(0, 0, 0); background-color: transparent;&quot;&gt;text, rodata, data, bss and stack sections)&lt;/span&gt;&lt;/div&gt;&lt;/div&gt;&lt;/div&gt;&lt;/div&gt;" style="rounded=0;whiteSpace=wrap;html=1;fillColor=#fff2cc;strokeColor=#d6b656;" parent="M3llXOsg-76fAK10a7wK-1" vertex="1">
                    <mxGeometry x="280" y="80" width="160" height="110" as="geometry"/>
                </mxCell>
                <mxCell id="8U3hdrdu74jwYac5wuFE-3" value="0x0000_0000_0008_0000" style="text;html=1;align=center;verticalAlign=middle;whiteSpace=wrap;rounded=0;" parent="M3llXOsg-76fAK10a7wK-1" vertex="1">
                    <mxGeometry x="120" y="70" width="160" height="30" as="geometry"/>
                </mxCell>
                <mxCell id="8U3hdrdu74jwYac5wuFE-4" style="edgeStyle=none;html=1;" parent="M3llXOsg-76fAK10a7wK-1" edge="1">
                    <mxGeometry relative="1" as="geometry">
                        <mxPoint x="440" y="190" as="targetPoint"/>
                        <mxPoint x="440" y="190" as="sourcePoint"/>
                        <Array as="points">
                            <mxPoint x="480" y="190"/>
                        </Array>
                    </mxGeometry>
                </mxCell>
                <mxCell id="8U3hdrdu74jwYac5wuFE-5" value="&amp;nbsp;reset_handler of loaded bare-metla program" style="text;html=1;align=center;verticalAlign=middle;whiteSpace=wrap;rounded=0;" parent="M3llXOsg-76fAK10a7wK-1" vertex="1">
                    <mxGeometry x="480" y="170" width="250" height="30" as="geometry"/>
                </mxCell>
            </root>
        </mxGraphModel>
    </diagram>
    <diagram id="bzhrjBmF5mP5jkb__dh1" name="remote-GDB">
        <mxGraphModel dx="725" dy="373" grid="1" gridSize="10" guides="1" tooltips="1" connect="1" arrows="1" fold="1" page="1" pageScale="1" pageWidth="850" pageHeight="1100" background="#FFFFFF" math="0" shadow="0">
            <root>
                <mxCell id="0"/>
                <mxCell id="1" parent="0"/>
                <mxCell id="BEjUVKwRjxNs0ddHJKBt-5" value="" style="rounded=0;whiteSpace=wrap;html=1;" vertex="1" parent="1">
                    <mxGeometry x="90" y="110" width="580" height="190" as="geometry"/>
                </mxCell>
                <mxCell id="BEjUVKwRjxNs0ddHJKBt-3" style="edgeStyle=none;html=1;entryX=0;entryY=0.5;entryDx=0;entryDy=0;shape=flexArrow;startArrow=block;" edge="1" parent="1" source="BEjUVKwRjxNs0ddHJKBt-1" target="BEjUVKwRjxNs0ddHJKBt-2">
                    <mxGeometry relative="1" as="geometry"/>
                </mxCell>
                <mxCell id="BEjUVKwRjxNs0ddHJKBt-1" value="Self-hosted&amp;nbsp;&lt;div&gt;GDB server&lt;div&gt;(running on embedded target)&lt;/div&gt;&lt;/div&gt;" style="rounded=0;whiteSpace=wrap;html=1;" vertex="1" parent="1">
                    <mxGeometry x="130" y="150" width="120" height="90" as="geometry"/>
                </mxCell>
                <mxCell id="BEjUVKwRjxNs0ddHJKBt-2" value="GDB client:&lt;div&gt;e.g., gdb, ddd, vscode&lt;/div&gt;&lt;div&gt;(running on development host)&amp;nbsp;&lt;/div&gt;" style="rounded=0;whiteSpace=wrap;html=1;" vertex="1" parent="1">
                    <mxGeometry x="510" y="150" width="130" height="90" as="geometry"/>
                </mxCell>
                <mxCell id="BEjUVKwRjxNs0ddHJKBt-4" value="&lt;b&gt;$&lt;/b&gt;&amp;lt;GDB packet payload&amp;gt;&lt;b&gt;#&lt;/b&gt;&amp;lt;checksum&amp;gt;" style="text;html=1;align=center;verticalAlign=middle;whiteSpace=wrap;rounded=0;" vertex="1" parent="1">
                    <mxGeometry x="270" y="160" width="220" height="30" as="geometry"/>
                </mxCell>
            </root>
        </mxGraphModel>
    </diagram>
</mxfile>